<svg xmlns="http://www.w3.org/2000/svg" viewBox="0 0 1366 768"><defs><style>.cls-1{fill:#837687;}.cls-2{fill:#5b4451;}.cls-3{fill:#381c23;}</style></defs><title>mtns</title><g id="Layer_3" data-name="Layer 3"><path class="cls-1" d="M-10,1152H1375.47a.53.53,0,0,0,.53-.53v-1169a.53.53,0,0,0-1-.21l-24.36,54-.06.11-35.42,46.45a.57.57,0,0,0-.11.28l-9.11,118.6a.53.53,0,0,1-.17.35l-40.36,36.73a.52.52,0,0,0-.15.27L1247,315.94a.69.69,0,0,1,0,.13l-35.64,67.38a.53.53,0,0,1-1-.22l-7-128.21a.46.46,0,0,0,0-.2l-60.65-128a.54.54,0,0,0-.75-.23l-86.68,51a.55.55,0,0,0-.24.3l-49.63,157.13a.56.56,0,0,1-.3.32l-40.28,17.54a.47.47,0,0,0-.21.16l-120,159.58a.53.53,0,0,1-.95-.27L828.52,365.93a.42.42,0,0,0,0-.16L778.78,255a.38.38,0,0,0-.12-.17l-59.29-55.67a.52.52,0,0,0-.85.18L652.89,356a.5.5,0,0,1-.36.3l-73.44,19.11a.52.52,0,0,1-.62-.32l-52.61-132.9a.94.94,0,0,0-.12-.18l-55.45-55.85a.55.55,0,0,0-.71-.05L406.1,235.52a.53.53,0,0,0-.19.27L370.43,356.14a.37.37,0,0,1-.05.11L307.93,464.66a.53.53,0,0,1-.93,0L245.66,340.49a.53.53,0,0,0-.59-.28l-98.61,20.7a.53.53,0,0,1-.63-.42L115.5,202.05a.58.58,0,0,0-.2-.31L56.7,155.36a.51.51,0,0,1-.19-.31L32.21,36.49a.54.54,0,0,0-.23-.34L-9.68,9.46a.53.53,0,0,0-.81.45V1151.47A.53.53,0,0,0-10,1152Z"/></g><g id="Layer_2" data-name="Layer 2"><path class="cls-2" d="M-9.73,453.6,46.89,374a1.16,1.16,0,0,1,1.18-.5L88,372c.46.1,34.51-62,34.51-62,.13-.2,20.41-4.56,20.62-4.65l52.14-23a1.17,1.17,0,0,0,.52-.44l78.78-113.61a1.27,1.27,0,0,1,.47-.42l72.87-36.27a1.15,1.15,0,0,1,1.52.49l25.56,42.27a1.22,1.22,0,0,0,.68.55l37.55,12.21a1.29,1.29,0,0,1,.81.83L500.9,442.39a1.19,1.19,0,0,0,2.31,0L544.43,318a1.24,1.24,0,0,1,1.05-.89L585,313.49a1.13,1.13,0,0,0,.55-.21L625,285.35a1.16,1.16,0,0,1,1.56.21l92,107.05a1.16,1.16,0,0,0,1.49.25l65.12-40.05c.58-.36,40.18,69.29,40.62,68.33,0,0,64.41-138.68,65-138.4l35.74,16.63a1.13,1.13,0,0,0,1.35-.3l58.44-65.79a1.15,1.15,0,0,1,1.74,0L1099.6,354.33a1.16,1.16,0,0,0,.73.38l75.54,8.68a1.15,1.15,0,0,0,.32,0l80.22-13.57a1.18,1.18,0,0,1,1.24.65l44.76,83.19a1.17,1.17,0,0,0,1.42.6l42.28-14.51a1.08,1.08,0,0,1,.86.06l28.29,14.1a1.37,1.37,0,0,1,.72,1.24V912.63a1.3,1.3,0,0,1-1.23,1.37S-9.49,913.39-9.49,912.63L-10,454.45A1.41,1.41,0,0,1-9.73,453.6Z"/></g><g id="Layer_1" data-name="Layer 1"><path class="cls-3" d="M-9,422.94l24,50.54a.76.76,0,0,0,1.29.14l23.39-30.75a.75.75,0,0,1,.25-.22l36.67-19.09a.71.71,0,0,0,.29-.28l42.4-69.08a.78.78,0,0,1,.24-.24l56-35.86a.76.76,0,0,1,1,.21l44.09,64.22a.79.79,0,0,0,.31.26l38,17.39a.77.77,0,0,1,.42.48L291.73,514.8a1.08,1.08,0,0,0,.08.19l29.32,47.77a.76.76,0,0,0,1.31,0l41.21-71.86a.81.81,0,0,1,.34-.32l44-19.94a.57.57,0,0,0,.13-.08l61.67-44.64a.8.8,0,0,0,.25-.32l33.2-76.87a.76.76,0,0,1,.7-.45h21.29a.76.76,0,0,0,.71-.5l39.32-108.33a.85.85,0,0,1,.21-.31l30.87-27.34a.75.75,0,0,1,.93-.05l57.18,39.51a.72.72,0,0,1,.25.3l77.84,159.27a.75.75,0,0,0,.68.43h33.55a.75.75,0,0,1,.68.42L827,531.07a.87.87,0,0,1,.07.17L856.92,663a.77.77,0,0,0,1.47.08l23.31-69.59a.75.75,0,0,1,.72-.52h31.46a.76.76,0,0,0,.67-.41l52.1-102.85a.76.76,0,0,1,1.19-.22l25.84,24a.75.75,0,0,0,1.22-.28l46.21-118.71a.87.87,0,0,1,.19-.28L1077.07,361a.76.76,0,0,1,1.13.11l35,47.72.06.07,50.58,54.34a.73.73,0,0,1,.17.31l24.71,84.93a.76.76,0,0,0,1.43.07L1216.57,483a.74.74,0,0,1,.47-.44l17.63-5.85a.73.73,0,0,0,.44-.37l28.16-54a.74.74,0,0,1,.31-.32l53.9-29a.76.76,0,0,1,1,.35l35.1,74.08a.62.62,0,0,1,.07.23l7.07,57.07a1.05,1.05,0,0,0,0,.19L1376,563.24a.92.92,0,0,1,0,.28V913a.76.76,0,0,1-.76.76H-9.73a.76.76,0,0,1-.76-.76V423.26A.75.75,0,0,1-9,422.94Z"/></g></svg>