<svg xmlns="http://www.w3.org/2000/svg" viewBox="0 0 1386.49 940.99"><defs><style>.cls-1{fill:#837687;}.cls-2{fill:#5b4451;}.cls-3{fill:#381c23;}</style></defs><title>mtns</title><g id="Layer_3" data-name="Layer 3"><polygon class="cls-1" points="0 940.99 1386.49 940.99 1386.49 0 1361.1 45.18 1325.55 82.61 1316.41 178.13 1275.78 207.82 1257.49 269.78 1220.93 325.28 1213.82 220.73 1152.87 117.46 1065.52 158.77 1015.75 285.27 975.12 299.46 854.24 428.54 839.01 309.79 789.24 220.73 729.31 175.55 663.28 302.05 589.13 317.54 536.32 210.4 480.45 165.22 416.46 205.24 380.9 302.05 317.93 389.82 255.97 289.14 156.43 305.92 125.95 178.13 67.04 140.7 42.66 45.18 0 23.23 0 940.99"/></g><g id="Layer_2" data-name="Layer 2"><path class="cls-2" d="M-9.73,453.6,46.89,374a1.16,1.16,0,0,1,1.18-.5L88,372c.46.1,34.51-62,34.51-62,.13-.2,20.41-4.56,20.62-4.65l52.14-23a1.17,1.17,0,0,0,.52-.44l78.78-113.61a1.27,1.27,0,0,1,.47-.42l72.87-36.27a1.15,1.15,0,0,1,1.52.49l25.56,42.27a1.22,1.22,0,0,0,.68.55l37.55,12.21a1.29,1.29,0,0,1,.81.83L500.9,442.39a1.19,1.19,0,0,0,2.31,0L544.43,318a1.24,1.24,0,0,1,1.05-.89L585,313.49a1.13,1.13,0,0,0,.55-.21L625,285.35a1.16,1.16,0,0,1,1.56.21l92,107.05a1.16,1.16,0,0,0,1.49.25l65.12-40.05a1.16,1.16,0,0,1,1.65.49l36.82,67.92a1.17,1.17,0,0,0,2.15-.08l63.43-137.76a1.17,1.17,0,0,1,1.57-.64l35.74,16.63a1.13,1.13,0,0,0,1.35-.3l58.44-65.79a1.15,1.15,0,0,1,1.74,0L1099.6,354.33a1.16,1.16,0,0,0,.73.38l75.54,8.68a1.15,1.15,0,0,0,.32,0l80.22-13.57a1.18,1.18,0,0,1,1.24.65l44.76,83.19a1.17,1.17,0,0,0,1.42.6l42.28-14.51a1.08,1.08,0,0,1,.86.06l28.29,14.1a1.37,1.37,0,0,1,.72,1.24V912.63a1.3,1.3,0,0,1-1.23,1.37S-9.49,913.39-9.49,912.63L-10,454.45A1.41,1.41,0,0,1-9.73,453.6Z" transform="translate(10.49 11)"/></g><g id="Layer_1" data-name="Layer 1"><polygon class="cls-3" points="0 430.89 25.98 485.61 50.23 453.73 87.23 434.46 129.83 365.06 186.63 328.7 231.25 393.7 269.79 411.33 302.25 525.9 332.29 574.85 374.26 501.67 418.54 481.59 480.43 436.77 513.91 359.26 536.23 359.26 575.8 250.25 607.26 222.39 665.09 262.36 743.22 422.24 777.72 422.24 837.58 542.15 868.02 676.6 892.37 603.92 924.84 603.92 977.6 499.76 1004.99 525.19 1051.67 405.28 1088.19 371.37 1123.7 419.82 1174.44 474.32 1199.8 561.53 1227.2 493.7 1245.46 487.65 1273.87 433.14 1328.68 403.62 1364.18 478.53 1371.28 535.82 1386.49 574.38 1386.49 924.71 0 924.71 0 430.89"/></g></svg>